<svg width="24" height="24" viewBox="0 0 24 24" xmlns="http://www.w3.org/2000/svg">
<path d="M10.1304 7C10.1304 8.03036 10.9696 8.8696 12 8.8696C13.0303 8.8696 13.8696 8.03036 13.8696 7C13.8696 5.96964 13.0303 5.1304 12 5.1304C10.9696 5.1304 10.1304 5.96964 10.1304 7Z"/>
<path fill-rule="evenodd" clip-rule="evenodd" d="M1.25 10C1.25 10.96 2.04 11.75 3 11.75H4.5V17.25H3C2.04 17.25 1.25 18.04 1.25 19V21.25H1C0.59 21.25 0.25 21.59 0.25 22C0.25 22.41 0.59 22.75 1 22.75H23C23.41 22.75 23.75 22.41 23.75 22C23.75 21.59 23.41 21.25 23 21.25H22.75V19C22.75 18.04 21.96 17.25 21 17.25H19.5V11.75H21C21.96 11.75 22.75 10.96 22.75 10V6.68001C22.75 6.01 22.28 5.31001 21.65 5.06001L12.65 1.46003C12.27 1.31003 11.73 1.31003 11.35 1.46003L2.34998 5.06001C1.71998 5.31001 1.25 6.00001 1.25 6.68001V10ZM21.25 19V21.25H2.75V19C2.75 18.86 2.86 18.75 3 18.75H21C21.14 18.75 21.25 18.86 21.25 19ZM18 11.75H15V17.25H18V11.75ZM13.5 11.75V17.25H10.5V11.75H13.5ZM9 11.75H6V17.25H9V11.75ZM12 2.84004C12.0397 2.84004 12.0701 2.84004 12.09 2.84999L21.09 6.45002C21.16 6.48002 21.25 6.61 21.25 6.68001V10C21.25 10.14 21.14 10.25 21 10.25H3C2.86 10.25 2.75 10.14 2.75 10V6.68001C2.75 6.61 2.84997 6.48002 2.90997 6.45002L11.9 2.84999C11.9199 2.84004 11.9602 2.84004 12 2.84004Z"/>
</svg>
