<svg width="24" height="24" viewBox="0 0 24 24" xmlns="http://www.w3.org/2000/svg">
<path d="M8.67006 15.82C8.55006 15.9 8.42006 15.93 8.29006 15.93C8.04006 15.93 7.79006 15.8 7.64006 15.56C7.43006 15.2 7.54006 14.74 7.90006 14.53L11.0001 12.68C11.3101 12.5 11.6101 11.97 11.6101 11.61V7.51C11.6101 7.1 11.9501 6.76 12.3601 6.76C12.7701 6.76 13.1101 7.1 13.1101 7.51V11.61C13.1101 12.5 12.5401 13.51 11.7701 13.97L8.67006 15.82Z"/>
<path fill-rule="evenodd" clip-rule="evenodd" d="M12 1.25C6.06294 1.25 1.25 6.06294 1.25 12C1.25 17.9371 6.06294 22.75 12 22.75C17.9371 22.75 22.75 17.9371 22.75 12C22.75 6.06294 17.9371 1.25 12 1.25ZM2.65217 12C2.65217 6.83734 6.83734 2.65217 12 2.65217C17.1627 2.65217 21.3478 6.83734 21.3478 12C21.3478 17.1627 17.1627 21.3478 12 21.3478C6.83734 21.3478 2.65217 17.1627 2.65217 12Z"/>
</svg>
