<svg width="21" height="20" viewBox="0 0 21 20" xmlns="http://www.w3.org/2000/svg">
<path d="M10.9583 9.9165H5.95834C5.61668 9.9165 5.33334 9.63317 5.33334 9.2915C5.33334 8.94984 5.61668 8.6665 5.95834 8.6665H10.9583C11.3 8.6665 11.5833 8.94984 11.5833 9.2915C11.5833 9.63317 11.3 9.9165 10.9583 9.9165Z"/>
<path d="M1.79166 9.9167C1.44999 9.9167 1.16666 9.63336 1.16666 9.2917V5.4417C1.16666 3.40003 2.82499 1.7417 4.86666 1.7417H9.54999C11.6917 1.7417 13.25 3.1667 13.25 5.12503C13.25 5.4667 12.9667 5.75003 12.625 5.75003C12.2833 5.75003 12 5.4667 12 5.12503C12 3.65836 10.725 2.9917 9.54999 2.9917H4.86666C3.51666 2.9917 2.41666 4.0917 2.41666 5.4417V9.2917C2.41666 9.6417 2.13332 9.9167 1.79166 9.9167Z"/>
<path d="M13.4583 18.25H5.12499C2.94166 18.25 1.16666 16.475 1.16666 14.2917V8.45833C1.16666 6.275 2.94166 4.5 5.12499 4.5H13.4583C15.6417 4.5 17.4167 6.275 17.4167 8.45833V9.66663C17.4167 10.0083 17.1333 10.2916 16.7917 10.2916H15.8916C15.6 10.2916 15.3333 10.4 15.1417 10.6L15.1333 10.6083C14.8583 10.8833 14.75 11.2666 14.85 11.6416C14.975 12.1083 15.4667 12.45 16.0167 12.45H16.7917C17.1333 12.45 17.4167 12.7333 17.4167 13.075V14.2833C17.4167 16.475 15.6417 18.25 13.4583 18.25ZM5.12499 5.75C3.63332 5.75 2.41666 6.96667 2.41666 8.45833V14.2917C2.41666 15.7833 3.63332 17 5.12499 17H13.4583C14.95 17 16.1667 15.7833 16.1667 14.2917V13.7083H16.0167C14.8917 13.7083 13.9166 13 13.6416 11.975C13.425 11.1666 13.6583 10.3083 14.25 9.72497C14.6833 9.2833 15.2666 9.04163 15.8916 9.04163H16.1667V8.45833C16.1667 6.96667 14.95 5.75 13.4583 5.75H5.12499Z"/>
<path d="M17.5999 13.7082H15.9916C14.7332 13.7082 13.6666 12.7749 13.5666 11.5749C13.4999 10.8832 13.7499 10.2082 14.2499 9.7165C14.6666 9.28317 15.2582 9.0415 15.8832 9.0415H17.5916C18.4083 9.0415 19.0749 9.69985 19.0749 10.5165V12.2332C19.0833 13.0499 18.4166 13.7082 17.5999 13.7082ZM15.8916 10.2915C15.5999 10.2915 15.3333 10.3998 15.1416 10.5998C14.9 10.8332 14.7833 11.1499 14.8166 11.4665C14.8583 12.0165 15.3916 12.4582 15.9916 12.4582H17.5999C17.7249 12.4582 17.8333 12.3582 17.8333 12.2332V10.5165C17.8333 10.3915 17.7249 10.2915 17.5999 10.2915H15.8916Z"/>
</svg>
